<?xml version="1.0" encoding="UTF-8"?>
<svg width="30px" height="17px" viewBox="0 0 30 17" version="1.1" xmlns="http://www.w3.org/2000/svg">
    <!-- Generator: Sketch 63.1 (92452) - https://sketch.com -->
    <title>Skip Forward</title>
    <desc>Created with Sketch.</desc>
    <g id="Page-1" stroke="none" stroke-width="1" fill="none" fill-rule="evenodd">
        <g id="A4" transform="translate(-44.000000, -832.000000)" fill="#FFFFFF">
            <g id="Timeline-Controls" transform="translate(35.000000, 815.000000)">
                <g id="Skip-Backward">
                    <g id="Skip-Forward"
                       transform="translate(23.000000, 25.500000) scale(-1, 1) translate(-23.000000, -25.500000) translate(7.000000, 15.000000)">
                        <path d="M24.7238684,4.93057633 L31.2270351,15.9859597 C31.7870741,16.938026 31.4692732,18.1638295 30.517207,18.7238684 C30.2098537,18.9046645 29.8597523,19 29.5031667,19 L16.4968333,19 C15.3922638,19 14.4968333,18.1045695 14.4968333,17 C14.4968333,16.6434144 14.5921688,16.293313 14.7729649,15.9859597 L21.2761316,4.93057633 C21.8361705,3.97851009 23.061974,3.66070919 24.0140403,4.22074815 C24.3071476,4.39316423 24.5514524,4.637469 24.7238684,4.93057633 Z"
                              id="Triangle"
                              transform="translate(23.000000, 10.500000) rotate(90.000000) translate(-23.000000, -10.500000) "></path>
                        <path d="M10.7238684,4.93057633 L17.2270351,15.9859597 C17.7870741,16.938026 17.4692732,18.1638295 16.517207,18.7238684 C16.2098537,18.9046645 15.8597523,19 15.5031667,19 L2.49683329,19 C1.39226379,19 0.496833285,18.1045695 0.496833285,17 C0.496833285,16.6434144 0.592168801,16.293313 0.772964855,15.9859597 L7.27613157,4.93057633 C7.83617054,3.97851009 9.06197401,3.66070919 10.0140403,4.22074815 C10.3071476,4.39316423 10.5514524,4.637469 10.7238684,4.93057633 Z"
                              id="Triangle"
                              transform="translate(9.000000, 10.500000) rotate(90.000000) translate(-9.000000, -10.500000) "></path>
                    </g>
                </g>
            </g>
        </g>
    </g>
</svg>