<?xml version="1.0" encoding="UTF-8"?>
<svg width="23px" height="15px" viewBox="0 0 23 15" version="1.1" xmlns="http://www.w3.org/2000/svg">
    <!-- Generator: Sketch 63.1 (92452) - https://sketch.com -->
    <title>1.5</title>
    <desc>Created with Sketch.</desc>
    <g id="Page-1" stroke="none" stroke-width="1" fill="none" fill-rule="evenodd">
        <g id="A4" transform="translate(-244.000000, -833.000000)" fill="#FFFFFF" fill-rule="nonzero">
            <g id="Timeline-Controls" transform="translate(35.000000, 815.000000)">
                <g id="Fast-Forward" transform="translate(195.000000, 0.000000)">
                    <path d="M22.621,32 L22.621,30.335 L20.281,30.335 L20.281,18.968 L18.454,18.968 L14.485,22.343 L15.187,23.306 C15.235,23.372 15.3085,23.4305 15.4075,23.4815 C15.5065,23.5325 15.616,23.558 15.736,23.558 C15.814,23.558 15.8935,23.546 15.9745,23.522 C16.0555,23.498 16.135,23.453 16.213,23.387 L16.213,23.387 L18.085,21.821 C18.067,22.145 18.058,22.454 18.058,22.748 L18.058,22.748 L18.058,30.335 L15.421,30.335 L15.421,32 L22.621,32 Z M25.465,32.126 C25.651,32.126 25.828,32.0915 25.996,32.0225 C26.164,31.9535 26.308,31.859 26.428,31.739 C26.548,31.619 26.644,31.4765 26.716,31.3115 C26.788,31.1465 26.824,30.968 26.824,30.776 C26.824,30.59 26.788,30.413 26.716,30.245 C26.644,30.077 26.548,29.933 26.428,29.813 C26.308,29.693 26.164,29.597 25.996,29.525 C25.828,29.453 25.651,29.417 25.465,29.417 C25.273,29.417 25.093,29.453 24.925,29.525 C24.757,29.597 24.6115,29.693 24.4885,29.813 C24.3655,29.933 24.2695,30.077 24.2005,30.245 C24.1315,30.413 24.097,30.59 24.097,30.776 C24.097,30.968 24.1315,31.1465 24.2005,31.3115 C24.2695,31.4765 24.3655,31.619 24.4885,31.739 C24.6115,31.859 24.757,31.9535 24.925,32.0225 C25.093,32.0915 25.273,32.126 25.465,32.126 Z M31.99,32.144 C32.686,32.144 33.3295,32.033 33.9205,31.811 C34.5115,31.589 35.023,31.2755 35.455,30.8705 C35.887,30.4655 36.2245,29.978 36.4675,29.408 C36.7105,28.838 36.832,28.208 36.832,27.518 C36.832,26.96 36.742,26.4395 36.562,25.9565 C36.382,25.4735 36.115,25.052 35.761,24.692 C35.407,24.332 34.9705,24.05 34.4515,23.846 C33.9325,23.642 33.331,23.54 32.647,23.54 C32.161,23.54 31.624,23.6 31.036,23.72 L31.036,23.72 L31.504,21.002 L35.086,21.002 C35.554,21.002 35.8885,20.903 36.0895,20.705 C36.2905,20.507 36.391,20.249 36.391,19.931 L36.391,19.931 L36.391,18.986 L29.965,18.986 L28.885,25.304 L30.271,25.7 C30.907,25.472 31.54,25.358 32.17,25.358 C32.968,25.358 33.5725,25.5575 33.9835,25.9565 C34.3945,26.3555 34.6,26.909 34.6,27.617 C34.6,28.001 34.5475,28.3565 34.4425,28.6835 C34.3375,29.0105 34.1815,29.2925 33.9745,29.5295 C33.7675,29.7665 33.508,29.951 33.196,30.083 C32.884,30.215 32.524,30.281 32.116,30.281 C31.732,30.281 31.405,30.233 31.135,30.137 C30.865,30.041 30.628,29.936 30.424,29.822 C30.22,29.708 30.0415,29.603 29.8885,29.507 C29.7355,29.411 29.584,29.363 29.434,29.363 C29.194,29.363 29.002,29.465 28.858,29.669 L28.858,29.669 L28.174,30.614 C28.39,30.818 28.6345,31.0115 28.9075,31.1945 C29.1805,31.3775 29.4775,31.5395 29.7985,31.6805 C30.1195,31.8215 30.463,31.934 30.829,32.018 C31.195,32.102 31.582,32.144 31.99,32.144 Z"
                          id="1.5"></path>
                </g>
            </g>
        </g>
    </g>
</svg>