<?xml version="1.0" encoding="UTF-8"?>
<svg width="23px" height="15px" viewBox="0 0 23 15" version="1.1" xmlns="http://www.w3.org/2000/svg">
    <!-- Generator: Sketch 63.1 (92452) - https://sketch.com -->
    <title>2x</title>
    <desc>Created with Sketch.</desc>
    <g id="Page-1" stroke="none" stroke-width="1" fill="none" fill-rule="evenodd">
        <g id="A4" transform="translate(-244.000000, -833.000000)" fill="#FFFFFF" fill-rule="nonzero">
            <g id="Timeline-Controls" transform="translate(35.000000, 815.000000)">
                <g id="Fast-Forward" transform="translate(195.000000, 0.000000)">
                    <path d="M24.76,33 L24.76,31.52 C24.76,31.2733333 24.6816667,31.075 24.525,30.925 C24.3683333,30.775 24.1566667,30.7 23.89,30.7 L23.89,30.7 L20.18,30.7 C19.9,30.7 19.6066667,30.725 19.3,30.775 C18.9933333,30.825 18.68,30.8966667 18.36,30.99 L18.36,30.99 L21.62,27.66 C22.0066667,27.26 22.3766667,26.8666667 22.73,26.48 C23.0833333,26.0933333 23.3916667,25.6933333 23.655,25.28 C23.9183333,24.8666667 24.1283333,24.4333333 24.285,23.98 C24.4416667,23.5266667 24.52,23.0333333 24.52,22.5 C24.52,21.88 24.41,21.3166667 24.19,20.81 C23.97,20.3033333 23.6633333,19.87 23.27,19.51 C22.8766667,19.15 22.4033333,18.8716667 21.85,18.675 C21.2966667,18.4783333 20.6866667,18.38 20.02,18.38 C19.38,18.38 18.7816667,18.4683333 18.225,18.645 C17.6683333,18.8216667 17.175,19.085 16.745,19.435 C16.315,19.785 15.9566667,20.2216667 15.67,20.745 C15.3833333,21.2683333 15.19,21.8766667 15.09,22.57 L15.09,22.57 L16.39,22.8 C16.51,22.82 16.62,22.83 16.72,22.83 C16.9466667,22.83 17.1333333,22.775 17.28,22.665 C17.4266667,22.555 17.5366667,22.3733333 17.61,22.12 C17.7633333,21.6133333 18.0316667,21.21 18.415,20.91 C18.7983333,20.61 19.2866667,20.46 19.88,20.46 C20.2,20.46 20.4883333,20.505 20.745,20.595 C21.0016667,20.685 21.2233333,20.82 21.41,21 C21.5966667,21.18 21.74,21.4016667 21.84,21.665 C21.94,21.9283333 21.99,22.2333333 21.99,22.58 C21.99,22.96 21.9383333,23.3216667 21.835,23.665 C21.7316667,24.0083333 21.5816667,24.3466667 21.385,24.68 C21.1883333,25.0133333 20.945,25.35 20.655,25.69 C20.365,26.03 20.0366667,26.3866667 19.67,26.76 L19.67,26.76 L15.28,31.16 C15.1266667,31.3133333 15.015,31.48 14.945,31.66 C14.875,31.84 14.84,32.0133333 14.84,32.18 L14.84,32.18 L14.84,33 L24.76,33 Z M28.05,33 C28.21,33 28.3433333,32.9516667 28.45,32.855 C28.5566667,32.7583333 28.6466667,32.6533333 28.72,32.54 L28.72,32.54 L30.64,29.57 C30.7466667,29.41 30.83,29.21 30.89,28.97 L30.89,28.97 L33.07,32.54 C33.1433333,32.66 33.235,32.7666667 33.345,32.86 C33.455,32.9533333 33.6,33 33.78,33 L33.78,33 L36.16,33 L32.64,27.6 L36.02,22.74 L33.75,22.74 C33.6233333,22.74 33.5166667,22.77 33.43,22.83 C33.3433333,22.89 33.26,22.9833333 33.18,23.11 L33.18,23.11 L31.45,25.81 C31.3766667,25.9233333 31.315,26.0366667 31.265,26.15 C31.215,26.2633333 31.1733333,26.3766667 31.14,26.49 L31.14,26.49 L28.99,23.06 C28.9233333,22.9466667 28.8466667,22.865 28.76,22.815 C28.6733333,22.765 28.54,22.74 28.36,22.74 L28.36,22.74 L25.98,22.74 L29.35,27.71 L25.84,33 L28.05,33 Z"
                          id="2x"></path>
                </g>
            </g>
        </g>
    </g>
</svg>