<?xml version="1.0" encoding="UTF-8"?>
<svg width="30px" height="19px" viewBox="0 0 30 19" version="1.1" xmlns="http://www.w3.org/2000/svg">
    <!-- Generator: Sketch 63.1 (92452) - https://sketch.com -->
    <title>Fast Forward</title>
    <desc>Created with Sketch.</desc>
    <g id="Page-1" stroke="none" stroke-width="1" fill="none" fill-rule="evenodd">
        <g id="A4" transform="translate(-306.000000, -831.000000)" fill="#FFFFFF">
            <g id="Timeline-Controls" transform="translate(35.000000, 815.000000)">
                <g id="Fast-Forward" transform="translate(195.000000, 0.000000)">
                    <g transform="translate(76.000000, 15.000000)" id="Triangle">
                        <path d="M24.9213126,4.76532627 L31.5267582,16.2530578 C32.0773542,17.210616 31.7474461,18.4332166 30.7898878,18.9838126 C30.4865776,19.158216 30.1428223,19.25 29.7929456,19.25 L16.5820544,19.25 C15.4774849,19.25 14.5820544,18.3545695 14.5820544,17.25 C14.5820544,16.9001233 14.6738384,16.556368 14.8482418,16.2530578 L21.4536874,4.76532627 C22.0042834,3.80776801 23.226884,3.47785991 24.1844422,4.02845591 C24.4908651,4.20464903 24.7451195,4.45890346 24.9213126,4.76532627 Z"
                              transform="translate(23.187500, 10.500000) rotate(90.000000) translate(-23.187500, -10.500000) "></path>
                        <path d="M10.9213126,4.76532627 L17.5267582,16.2530578 C18.0773542,17.210616 17.7474461,18.4332166 16.7898878,18.9838126 C16.4865776,19.158216 16.1428223,19.25 15.7929456,19.25 L2.5820544,19.25 C1.4774849,19.25 0.582054399,18.3545695 0.582054399,17.25 C0.582054399,16.9001233 0.673838372,16.556368 0.848241793,16.2530578 L7.45368739,4.76532627 C8.00428339,3.80776801 9.22688399,3.47785991 10.1844422,4.02845591 C10.4908651,4.20464903 10.7451195,4.45890346 10.9213126,4.76532627 Z"
                              transform="translate(9.187500, 10.500000) rotate(90.000000) translate(-9.187500, -10.500000) "></path>
                    </g>
                </g>
            </g>
        </g>
    </g>
</svg>