<?xml version="1.0" encoding="UTF-8"?>
<svg width="24px" height="15px" viewBox="0 0 24 15" version="1.1" xmlns="http://www.w3.org/2000/svg">
    <!-- Generator: Sketch 63.1 (92452) - https://sketch.com -->
    <title>0.5</title>
    <desc>Created with Sketch.</desc>
    <g id="Page-1" stroke="none" stroke-width="1" fill="none" fill-rule="evenodd">
        <g id="A4" transform="translate(-113.000000, -833.000000)" fill="#FFFFFF" fill-rule="nonzero">
            <g id="Timeline-Controls" transform="translate(35.000000, 815.000000)">
                <g id="Fast-Backward" transform="translate(65.000000, 0.000000)">
                    <path d="M18.202,32.144 C18.88,32.144 19.5115,32.0105 20.0965,31.7435 C20.6815,31.4765 21.1885,31.07 21.6175,30.524 C22.0465,29.978 22.3825,29.2865 22.6255,28.4495 C22.8685,27.6125 22.99,26.627 22.99,25.493 C22.99,24.353 22.8685,23.366 22.6255,22.532 C22.3825,21.698 22.0465,21.008 21.6175,20.462 C21.1885,19.916 20.6815,19.5095 20.0965,19.2425 C19.5115,18.9755 18.88,18.842 18.202,18.842 C17.524,18.842 16.8955,18.9755 16.3165,19.2425 C15.7375,19.5095 15.235,19.916 14.809,20.462 C14.383,21.008 14.05,21.698 13.81,22.532 C13.57,23.366 13.45,24.353 13.45,25.493 C13.45,26.627 13.57,27.6125 13.81,28.4495 C14.05,29.2865 14.383,29.978 14.809,30.524 C15.235,31.07 15.7375,31.4765 16.3165,31.7435 C16.8955,32.0105 17.524,32.144 18.202,32.144 Z M18.202,30.299 C17.884,30.299 17.5765,30.2255 17.2795,30.0785 C16.9825,29.9315 16.72,29.675 16.492,29.309 C16.264,28.943 16.0825,28.451 15.9475,27.833 C15.8125,27.215 15.745,26.435 15.745,25.493 C15.745,24.551 15.8125,23.771 15.9475,23.153 C16.0825,22.535 16.264,22.043 16.492,21.677 C16.72,21.311 16.9825,21.0545 17.2795,20.9075 C17.5765,20.7605 17.884,20.687 18.202,20.687 C18.526,20.687 18.838,20.7605 19.138,20.9075 C19.438,21.0545 19.7035,21.311 19.9345,21.677 C20.1655,22.043 20.35,22.535 20.488,23.153 C20.626,23.771 20.695,24.551 20.695,25.493 C20.695,26.435 20.626,27.215 20.488,27.833 C20.35,28.451 20.1655,28.943 19.9345,29.309 C19.7035,29.675 19.438,29.9315 19.138,30.0785 C18.838,30.2255 18.526,30.299 18.202,30.299 Z M25.465,32.126 C25.651,32.126 25.828,32.0915 25.996,32.0225 C26.164,31.9535 26.308,31.859 26.428,31.739 C26.548,31.619 26.644,31.4765 26.716,31.3115 C26.788,31.1465 26.824,30.968 26.824,30.776 C26.824,30.59 26.788,30.413 26.716,30.245 C26.644,30.077 26.548,29.933 26.428,29.813 C26.308,29.693 26.164,29.597 25.996,29.525 C25.828,29.453 25.651,29.417 25.465,29.417 C25.273,29.417 25.093,29.453 24.925,29.525 C24.757,29.597 24.6115,29.693 24.4885,29.813 C24.3655,29.933 24.2695,30.077 24.2005,30.245 C24.1315,30.413 24.097,30.59 24.097,30.776 C24.097,30.968 24.1315,31.1465 24.2005,31.3115 C24.2695,31.4765 24.3655,31.619 24.4885,31.739 C24.6115,31.859 24.757,31.9535 24.925,32.0225 C25.093,32.0915 25.273,32.126 25.465,32.126 Z M31.99,32.144 C32.686,32.144 33.3295,32.033 33.9205,31.811 C34.5115,31.589 35.023,31.2755 35.455,30.8705 C35.887,30.4655 36.2245,29.978 36.4675,29.408 C36.7105,28.838 36.832,28.208 36.832,27.518 C36.832,26.96 36.742,26.4395 36.562,25.9565 C36.382,25.4735 36.115,25.052 35.761,24.692 C35.407,24.332 34.9705,24.05 34.4515,23.846 C33.9325,23.642 33.331,23.54 32.647,23.54 C32.161,23.54 31.624,23.6 31.036,23.72 L31.036,23.72 L31.504,21.002 L35.086,21.002 C35.554,21.002 35.8885,20.903 36.0895,20.705 C36.2905,20.507 36.391,20.249 36.391,19.931 L36.391,19.931 L36.391,18.986 L29.965,18.986 L28.885,25.304 L30.271,25.7 C30.907,25.472 31.54,25.358 32.17,25.358 C32.968,25.358 33.5725,25.5575 33.9835,25.9565 C34.3945,26.3555 34.6,26.909 34.6,27.617 C34.6,28.001 34.5475,28.3565 34.4425,28.6835 C34.3375,29.0105 34.1815,29.2925 33.9745,29.5295 C33.7675,29.7665 33.508,29.951 33.196,30.083 C32.884,30.215 32.524,30.281 32.116,30.281 C31.732,30.281 31.405,30.233 31.135,30.137 C30.865,30.041 30.628,29.936 30.424,29.822 C30.22,29.708 30.0415,29.603 29.8885,29.507 C29.7355,29.411 29.584,29.363 29.434,29.363 C29.194,29.363 29.002,29.465 28.858,29.669 L28.858,29.669 L28.174,30.614 C28.39,30.818 28.6345,31.0115 28.9075,31.1945 C29.1805,31.3775 29.4775,31.5395 29.7985,31.6805 C30.1195,31.8215 30.463,31.934 30.829,32.018 C31.195,32.102 31.582,32.144 31.99,32.144 Z"
                          id="0.5"></path>
                </g>
            </g>
        </g>
    </g>
</svg>