<?xml version="1.0" encoding="UTF-8"?>
<svg width="39px" height="16px" viewBox="0 0 39 16" version="1.1" xmlns="http://www.w3.org/2000/svg">
    <!-- Generator: Sketch 63.1 (92452) - https://sketch.com -->
    <title>0.5x</title>
    <desc>Created with Sketch.</desc>
    <g id="Page-1" stroke="none" stroke-width="1" fill="none" fill-rule="evenodd">
        <g id="A4" transform="translate(-106.000000, -833.000000)" fill="#FFFFFF" fill-rule="nonzero">
            <g id="Timeline-Controls" transform="translate(35.000000, 815.000000)">
                <g id="Fast-Backward" transform="translate(65.000000, 0.000000)">
                    <path d="M11.78,33.16 C12.5333333,33.16 13.235,33.0116667 13.885,32.715 C14.535,32.4183333 15.0983333,31.9666667 15.575,31.36 C16.0516667,30.7533333 16.425,29.985 16.695,29.055 C16.965,28.125 17.1,27.03 17.1,25.77 C17.1,24.5033333 16.965,23.4066667 16.695,22.48 C16.425,21.5533333 16.0516667,20.7866667 15.575,20.18 C15.0983333,19.5733333 14.535,19.1216667 13.885,18.825 C13.235,18.5283333 12.5333333,18.38 11.78,18.38 C11.0266667,18.38 10.3283333,18.5283333 9.685,18.825 C9.04166667,19.1216667 8.48333333,19.5733333 8.01,20.18 C7.53666667,20.7866667 7.16666667,21.5533333 6.9,22.48 C6.63333333,23.4066667 6.5,24.5033333 6.5,25.77 C6.5,27.03 6.63333333,28.125 6.9,29.055 C7.16666667,29.985 7.53666667,30.7533333 8.01,31.36 C8.48333333,31.9666667 9.04166667,32.4183333 9.685,32.715 C10.3283333,33.0116667 11.0266667,33.16 11.78,33.16 Z M11.78,31.11 C11.4266667,31.11 11.085,31.0283333 10.755,30.865 C10.425,30.7016667 10.1333333,30.4166667 9.88,30.01 C9.62666667,29.6033333 9.425,29.0566667 9.275,28.37 C9.125,27.6833333 9.05,26.8166667 9.05,25.77 C9.05,24.7233333 9.125,23.8566667 9.275,23.17 C9.425,22.4833333 9.62666667,21.9366667 9.88,21.53 C10.1333333,21.1233333 10.425,20.8383333 10.755,20.675 C11.085,20.5116667 11.4266667,20.43 11.78,20.43 C12.14,20.43 12.4866667,20.5116667 12.82,20.675 C13.1533333,20.8383333 13.4483333,21.1233333 13.705,21.53 C13.9616667,21.9366667 14.1666667,22.4833333 14.32,23.17 C14.4733333,23.8566667 14.55,24.7233333 14.55,25.77 C14.55,26.8166667 14.4733333,27.6833333 14.32,28.37 C14.1666667,29.0566667 13.9616667,29.6033333 13.705,30.01 C13.4483333,30.4166667 13.1533333,30.7016667 12.82,30.865 C12.4866667,31.0283333 12.14,31.11 11.78,31.11 Z M19.85,33.14 C20.0566667,33.14 20.2533333,33.1016667 20.44,33.025 C20.6266667,32.9483333 20.7866667,32.8433333 20.92,32.71 C21.0533333,32.5766667 21.16,32.4183333 21.24,32.235 C21.32,32.0516667 21.36,31.8533333 21.36,31.64 C21.36,31.4333333 21.32,31.2366667 21.24,31.05 C21.16,30.8633333 21.0533333,30.7033333 20.92,30.57 C20.7866667,30.4366667 20.6266667,30.33 20.44,30.25 C20.2533333,30.17 20.0566667,30.13 19.85,30.13 C19.6366667,30.13 19.4366667,30.17 19.25,30.25 C19.0633333,30.33 18.9016667,30.4366667 18.765,30.57 C18.6283333,30.7033333 18.5216667,30.8633333 18.445,31.05 C18.3683333,31.2366667 18.33,31.4333333 18.33,31.64 C18.33,31.8533333 18.3683333,32.0516667 18.445,32.235 C18.5216667,32.4183333 18.6283333,32.5766667 18.765,32.71 C18.9016667,32.8433333 19.0633333,32.9483333 19.25,33.025 C19.4366667,33.1016667 19.6366667,33.14 19.85,33.14 Z M27.1,33.16 C27.8733333,33.16 28.5883333,33.0366667 29.245,32.79 C29.9016667,32.5433333 30.47,32.195 30.95,31.745 C31.43,31.295 31.805,30.7533333 32.075,30.12 C32.345,29.4866667 32.48,28.7866667 32.48,28.02 C32.48,27.4 32.38,26.8216667 32.18,26.285 C31.98,25.7483333 31.6833333,25.28 31.29,24.88 C30.8966667,24.48 30.4116667,24.1666667 29.835,23.94 C29.2583333,23.7133333 28.59,23.6 27.83,23.6 C27.29,23.6 26.6933333,23.6666667 26.04,23.8 L26.04,23.8 L26.56,20.78 L30.54,20.78 C31.06,20.78 31.4316667,20.67 31.655,20.45 C31.8783333,20.23 31.99,19.9433333 31.99,19.59 L31.99,19.59 L31.99,18.54 L24.85,18.54 L23.65,25.56 L25.19,26 C25.8966667,25.7466667 26.6,25.62 27.3,25.62 C28.1866667,25.62 28.8583333,25.8416667 29.315,26.285 C29.7716667,26.7283333 30,27.3433333 30,28.13 C30,28.5566667 29.9416667,28.9516667 29.825,29.315 C29.7083333,29.6783333 29.535,29.9916667 29.305,30.255 C29.075,30.5183333 28.7866667,30.7233333 28.44,30.87 C28.0933333,31.0166667 27.6933333,31.09 27.24,31.09 C26.8133333,31.09 26.45,31.0366667 26.15,30.93 C25.85,30.8233333 25.5866667,30.7066667 25.36,30.58 C25.1333333,30.4533333 24.935,30.3366667 24.765,30.23 C24.595,30.1233333 24.4266667,30.07 24.26,30.07 C23.9933333,30.07 23.78,30.1833333 23.62,30.41 L23.62,30.41 L22.86,31.46 C23.1,31.6866667 23.3716667,31.9016667 23.675,32.105 C23.9783333,32.3083333 24.3083333,32.4883333 24.665,32.645 C25.0216667,32.8016667 25.4033333,32.9266667 25.81,33.02 C26.2166667,33.1133333 26.6466667,33.16 27.1,33.16 Z M36.15,33 C36.31,33 36.4433333,32.9516667 36.55,32.855 C36.6566667,32.7583333 36.7466667,32.6533333 36.82,32.54 L36.82,32.54 L38.74,29.57 C38.8466667,29.41 38.93,29.21 38.99,28.97 L38.99,28.97 L41.17,32.54 C41.2433333,32.66 41.335,32.7666667 41.445,32.86 C41.555,32.9533333 41.7,33 41.88,33 L41.88,33 L44.26,33 L40.74,27.6 L44.12,22.74 L41.85,22.74 C41.7233333,22.74 41.6166667,22.77 41.53,22.83 C41.4433333,22.89 41.36,22.9833333 41.28,23.11 L41.28,23.11 L39.55,25.81 C39.4766667,25.9233333 39.415,26.0366667 39.365,26.15 C39.315,26.2633333 39.2733333,26.3766667 39.24,26.49 L39.24,26.49 L37.09,23.06 C37.0233333,22.9466667 36.9466667,22.865 36.86,22.815 C36.7733333,22.765 36.64,22.74 36.46,22.74 L36.46,22.74 L34.08,22.74 L37.45,27.71 L33.94,33 L36.15,33 Z"
                          id="0.5x"></path>
                </g>
            </g>
        </g>
    </g>
</svg>